# xmcd
#
# Track frame offsets:
#   150
#   20998
#   35773
#   55947
#   71145
#   87289
#   103858
#   122808
#   135443
#   152169
#   174422
#   193066
#
# Disc length: 2789 seconds
#
# Revision: 0
# Processed by: cddbd v1.5.2PL0 Copyright (c) Steve Scherf et al.
# Submitted via: GXTranscoder 2.0.1939
#
DISCID=ae0ae30c
DTITLE=Rihanna - Good Girl Gone Bad
DYEAR=1900
DGENRE=Pop
TTITLE0=umbrella
TTITLE1=push up on me
TTITLE2=don't stop the music
TTITLE3=breakin' dishes
TTITLE4=shut up and drive
TTITLE5=hate that i love you
TTITLE6=say it
TTITLE7=sell me candy
TTITLE8=lemme get that
TTITLE9=rehab
TTITLE10=question exsisting
TTITLE11=good girl gone bad
EXTD=
EXTT0=
EXTT1=
EXTT2=
EXTT3=
EXTT4=
EXTT5=
EXTT6=
EXTT7=
EXTT8=
EXTT9=
EXTT10=
EXTT11=
PLAYORDER=
